<?xml version="1.0" encoding="utf-8"?>
<!-- Generator: Adobe Illustrator 25.4.1, SVG Export Plug-In . SVG Version: 6.00 Build 0)  -->
<svg version="1.1" id="グループ_1" xmlns="http://www.w3.org/2000/svg" xmlns:xlink="http://www.w3.org/1999/xlink" x="0px"
	 y="0px" viewBox="0 0 50 50" style="enable-background:new 0 0 50 50;" xml:space="preserve">
<style type="text/css">
	.st0{fill:#1D2C69;}
	.st1{fill:#CAE1EF;}
</style>
<path class="st0" d="M29.5,24.7c-0.2-0.2-0.3-0.7-0.3-0.7s-0.1,0.5-0.3,0.7c-0.2,0.2-0.6,0.3-0.7,0.3c-0.1,0-0.5-0.1-0.7-0.3
	c-0.1-0.1-0.2-0.2-0.2-0.4c0,0,0,0,0,0s0-0.1-0.1-0.1c0-0.1-0.1-0.2-0.1-0.2s0,0,0,0c-0.1-0.1-0.1-0.3-0.1-0.4
	c0-0.2,0.2-0.7,0.3-0.7c0.1,0,0.4-0.3,0.7-0.3c0.3,0,0.7,0.3,0.7,0.3s-0.3-0.5-0.3-0.7c0-0.3,0.3-0.7,0.3-0.7s-0.4,0.3-0.7,0.3
	c-0.3,0-0.7-0.3-0.7-0.3s0.3,0.5,0.3,0.7c0,0.3-0.2,0.7-0.3,0.7c-0.1,0-0.4,0.3-0.7,0.3c-0.1,0-0.3-0.1-0.4-0.1c0,0,0,0,0,0
	s-0.1,0-0.2-0.1c-0.1,0-0.2-0.1-0.2-0.1s0,0,0,0c-0.1-0.1-0.3-0.1-0.4-0.2C25.2,22.4,25,22,25,21.9c0-0.1,0.1-0.5,0.3-0.7
	c0.2-0.2,0.7-0.3,0.7-0.3s-0.5-0.1-0.7-0.3c-0.2-0.2-0.3-0.7-0.3-0.7s-0.1,0.5-0.3,0.7c-0.2,0.2-0.7,0.3-0.7,0.3s0.5,0.1,0.7,0.3
	c0.2,0.2,0.3,0.6,0.3,0.7c0,0.1-0.1,0.5-0.3,0.7c-0.1,0.1-0.3,0.2-0.4,0.2c0,0,0,0,0,0s-0.1,0-0.2,0.1c-0.1,0-0.2,0-0.2,0s0,0,0,0
	c-0.1,0.1-0.3,0.1-0.4,0.1c-0.3,0-0.7-0.2-0.7-0.3c0-0.1-0.3-0.4-0.3-0.7c0-0.3,0.3-0.7,0.3-0.7s-0.5,0.3-0.7,0.3
	c-0.3,0-0.7-0.3-0.7-0.3s0.3,0.4,0.3,0.7c0,0.3-0.3,0.7-0.3,0.7s0.5-0.3,0.7-0.3c0.2,0,0.7,0.2,0.7,0.3c0,0.1,0.3,0.4,0.3,0.7
	c0,0.1-0.1,0.3-0.1,0.4c0,0,0,0,0,0s0,0.1-0.1,0.2c0,0.1-0.1,0.1-0.1,0.1s0,0,0,0c-0.1,0.1-0.1,0.3-0.2,0.4C22.4,24.8,22,25,21.9,25
	c-0.1,0-0.5-0.1-0.7-0.3C21,24.5,20.9,24,20.9,24s-0.1,0.5-0.3,0.7c-0.2,0.2-0.7,0.3-0.7,0.3s0.5,0.1,0.7,0.3
	c0.2,0.2,0.3,0.7,0.3,0.7s0.1-0.5,0.3-0.7c0.2-0.2,0.6-0.3,0.7-0.3c0.1,0,0.5,0.1,0.7,0.3c0.1,0.1,0.2,0.3,0.2,0.4c0,0,0,0,0,0
	s0,0.1,0.1,0.2c0,0.1,0,0.2,0,0.2s0,0,0,0c0.1,0.1,0.1,0.3,0.1,0.4c0,0.3-0.2,0.7-0.3,0.7c-0.1,0-0.4,0.3-0.7,0.3
	c-0.3,0-0.7-0.3-0.7-0.3s0.3,0.5,0.3,0.7c0,0.3-0.3,0.7-0.3,0.7s0.4-0.3,0.7-0.3c0.3,0,0.7,0.3,0.7,0.3s-0.3-0.5-0.3-0.7
	c0-0.2,0.2-0.7,0.3-0.7c0.1,0,0.4-0.3,0.7-0.3c0.1,0,0.3,0.1,0.4,0.1c0,0,0,0,0,0s0.1,0,0.2,0.1c0.1,0,0.2,0.1,0.2,0.1s0,0,0,0
	c0.1,0.1,0.3,0.1,0.4,0.2c0.2,0.2,0.3,0.6,0.3,0.7c0,0.1-0.1,0.5-0.3,0.7C24.5,29,24,29.1,24,29.1s0.5,0.1,0.7,0.3
	c0.2,0.2,0.3,0.7,0.3,0.7s0.1-0.5,0.3-0.7c0.2-0.2,0.7-0.3,0.7-0.3s-0.5-0.1-0.7-0.3c-0.2-0.2-0.3-0.6-0.3-0.7
	c0-0.1,0.1-0.5,0.3-0.7c0.1-0.1,0.2-0.2,0.4-0.2c0,0,0,0,0,0s0.1,0,0.1-0.1c0.1,0,0.2-0.1,0.2-0.1s0,0,0,0c0.1-0.1,0.3-0.1,0.4-0.1
	c0.2,0,0.7,0.2,0.7,0.3c0,0.1,0.3,0.4,0.3,0.7c0,0.3-0.3,0.7-0.3,0.7s0.5-0.3,0.7-0.3c0.3,0,0.7,0.3,0.7,0.3s-0.3-0.4-0.3-0.7
	c0-0.3,0.3-0.7,0.3-0.7s-0.5,0.3-0.7,0.3c-0.3,0-0.7-0.2-0.7-0.3c0-0.1-0.3-0.4-0.3-0.7c0-0.1,0.1-0.3,0.1-0.4c0,0,0,0,0,0
	s0-0.1,0-0.2c0-0.1,0.1-0.2,0.1-0.2s0,0,0,0c0.1-0.1,0.1-0.3,0.2-0.4c0.2-0.2,0.6-0.3,0.7-0.3c0.1,0,0.5,0.1,0.7,0.3
	c0.2,0.2,0.3,0.7,0.3,0.7s0.1-0.5,0.3-0.7c0.2-0.2,0.7-0.3,0.7-0.3S29.7,24.9,29.5,24.7z M27,24.2c-0.1,0.2-0.2,0.4-0.3,0.5
	C26.6,24.8,26.1,25,26,25c-0.1,0-0.3-0.1-0.5-0.2c0,0,0,0,0,0c0,0,0,0,0,0c0,0,0-0.1,0-0.1c0,0,0,0,0,0c0.1-0.2,0.2-0.3,0.2-0.4
	c0.1,0,0.4-0.3,0.7-0.3C26.6,24,26.8,24.1,27,24.2z M25.3,23.3c0.1-0.1,0.3-0.2,0.5-0.3c0.1,0.2,0.2,0.4,0.2,0.5
	c0,0.3-0.2,0.6-0.3,0.7c-0.1,0-0.3,0.2-0.5,0.2C25.1,24.3,25,24,25,24C25,23.9,25.1,23.5,25.3,23.3z M24.7,23.3
	c0.2,0.2,0.3,0.6,0.3,0.7c0,0.1-0.1,0.3-0.2,0.5c-0.2-0.1-0.5-0.2-0.5-0.2c0-0.1-0.3-0.4-0.3-0.7c0-0.1,0.1-0.4,0.2-0.5
	C24.3,23.1,24.5,23.2,24.7,23.3z M23.5,24c0.2,0,0.6,0.2,0.7,0.3c0,0.1,0.2,0.3,0.2,0.5C24.3,24.9,24.1,25,24,25c0,0,0,0,0,0
	c-0.1,0-0.5-0.1-0.7-0.3c-0.1-0.1-0.2-0.3-0.3-0.5C23.2,24.1,23.4,24,23.5,24z M23,25.8c0.1-0.2,0.1-0.4,0.3-0.5
	c0.2-0.2,0.6-0.3,0.7-0.3c0.1,0,0.3,0.1,0.5,0.2c-0.1,0.2-0.2,0.4-0.2,0.5c0,0,0,0,0,0c-0.1,0-0.4,0.3-0.7,0.3
	C23.4,26,23.2,25.9,23,25.8z M24.7,26.7c-0.1,0.1-0.3,0.2-0.5,0.3c-0.1-0.2-0.2-0.4-0.2-0.5c0-0.2,0.2-0.6,0.3-0.7
	c0.1,0,0.3-0.2,0.5-0.2c0,0,0,0,0,0c0,0,0,0,0,0c0,0,0,0.1,0.1,0.1c0,0,0,0,0,0C24.9,25.8,25,26,25,26C25,26.1,24.9,26.5,24.7,26.7z
	 M25.3,26.7C25.2,26.6,25,26.1,25,26c0-0.1,0.1-0.3,0.2-0.5c0,0,0,0,0,0c0,0,0,0,0,0c0,0,0.1,0,0.1,0c0,0,0,0,0,0
	c0.2,0.1,0.3,0.2,0.4,0.2c0,0.1,0.3,0.4,0.3,0.7c0,0.2-0.1,0.4-0.2,0.5C25.7,26.9,25.4,26.8,25.3,26.7z M26.5,26
	c-0.3,0-0.6-0.2-0.7-0.3c0-0.1-0.2-0.3-0.2-0.5c0,0,0,0,0,0c0,0,0,0,0,0c0,0,0.1,0,0.1-0.1c0,0,0,0,0,0C25.8,25.1,26,25,26,25
	c0.1,0,0.5,0.1,0.7,0.3c0.1,0.1,0.2,0.3,0.3,0.5C26.8,25.9,26.6,26,26.5,26z"/>
<g>
	<path class="st1" d="M21.9,7.3c0,0-0.1,0.5-0.3,0.7c-0.2,0.2-0.7,0.3-0.7,0.3s0.5,0.1,0.7,0.3c0.2,0.2,0.3,0.7,0.3,0.7
		S22,9,22.2,8.7c0.2-0.2,0.7-0.3,0.7-0.3s-0.5-0.1-0.7-0.3C22,7.9,21.9,7.3,21.9,7.3c0,0,0.2-1,0.7-1.4C22.9,5.5,24,5.2,24,5.2
		s-1-0.3-1.4-0.7c-0.4-0.4-0.7-1.4-0.7-1.4s-0.2,0.9-0.7,1.4c-0.4,0.4-1.4,0.7-1.4,0.7s1,0.3,1.4,0.7C21.5,6.3,21.9,7.3,21.9,7.3z
		 M21.5,4.9c0.2-0.2,0.3-0.7,0.3-0.7s0.1,0.5,0.3,0.7c0.2,0.2,0.7,0.3,0.7,0.3s-0.5,0.1-0.7,0.3c-0.2,0.2-0.3,0.7-0.3,0.7
		s-0.2-0.5-0.3-0.7c-0.2-0.2-0.7-0.3-0.7-0.3S21.3,5.1,21.5,4.9z"/>
	<path class="st1" d="M28.1,7.3c0,0-0.1,0.5-0.3,0.7c-0.2,0.2-0.7,0.3-0.7,0.3s0.5,0.1,0.7,0.3c0.2,0.2,0.3,0.7,0.3,0.7
		s0.1-0.5,0.3-0.7c0.2-0.2,0.7-0.3,0.7-0.3s-0.5-0.1-0.7-0.3C28.3,7.9,28.1,7.3,28.1,7.3z"/>
	<path class="st1" d="M27.1,12.6L27.1,12.6c0,0-0.2,0.9-0.7,1.4c-0.4,0.4-1.4,0.7-1.4,0.7s1,0.3,1.4,0.7c0.4,0.4,0.7,1.4,0.7,1.4
		s0.2-1,0.7-1.4c0.4-0.4,1.4-0.7,1.4-0.7s-1-0.3-1.4-0.7C27.4,13.6,27.1,12.6,27.1,12.6c0,0,0.5,0.1,0.7,0.3
		c0.2,0.2,0.3,0.7,0.3,0.7s0.1-0.5,0.3-0.7c0.2-0.2,0.7-0.3,0.7-0.3s-0.5-0.1-0.7-0.3c-0.2-0.2-0.3-0.7-0.3-0.7s-0.1,0.5-0.3,0.7
		C27.6,12.4,27.1,12.6,27.1,12.6L27.1,12.6L27.1,12.6C27.1,12.6,27.1,12.6,27.1,12.6z M27.4,14.4c0.2,0.2,0.7,0.3,0.7,0.3
		s-0.5,0.1-0.7,0.3c-0.2,0.2-0.3,0.7-0.3,0.7s-0.2-0.5-0.3-0.7c-0.2-0.2-0.7-0.3-0.7-0.3s0.5-0.1,0.7-0.3c0.2-0.2,0.3-0.7,0.3-0.7
		S27.2,14.2,27.4,14.4z"/>
	<path class="st1" d="M26,5.2C26,5.2,26,5.2,26,5.2c0,0-0.1,0.5-0.3,0.7C25.5,6.2,25,6.3,25,6.3c0,0,0.5,0.1,0.7,0.3
		C25.9,6.8,26,7.3,26,7.3s0.1-0.5,0.3-0.7c0.2-0.2,0.7-0.3,0.7-0.3S26.6,6.1,26.4,6C26.2,5.8,26.1,5.3,26,5.2c0,0,1,0.3,1.4,0.7
		c0.4,0.4,0.7,1.4,0.7,1.4s0.2-1,0.7-1.4c0.4-0.4,1.4-0.7,1.4-0.7s-1-0.3-1.4-0.7c-0.4-0.4-0.7-1.4-0.7-1.4S28,4.1,27.5,4.6
		C27.1,5,26.1,5.2,26,5.2L26,5.2L26,5.2L26,5.2C26,5.2,26,5.2,26,5.2z M27.8,4.9c0.2-0.2,0.3-0.7,0.3-0.7s0.1,0.5,0.3,0.7
		c0.2,0.2,0.7,0.3,0.7,0.3s-0.5,0.1-0.7,0.3c-0.2,0.2-0.3,0.7-0.3,0.7S28,5.8,27.8,5.6c-0.2-0.2-0.7-0.3-0.7-0.3S27.6,5.1,27.8,4.9z
		"/>
	<path class="st1" d="M24,5.2c0,0,0.5,0.1,0.7,0.3C24.8,5.8,25,6.3,25,6.3l0,0v0c0,0,0.1-0.5,0.3-0.7C25.5,5.4,26,5.2,26,5.2
		c0,0-0.5-0.1-0.7-0.3C25.1,4.7,25,4.2,25,4.2c0,0-0.1,0.5-0.3,0.7C24.5,5.1,24,5.2,24,5.2z"/>
	<path class="st1" d="M24,5.2L24,5.2c0,0-0.1,0.5-0.3,0.7c-0.2,0.2-0.7,0.3-0.7,0.3s0.5,0.1,0.7,0.3C23.8,6.8,24,7.3,24,7.3
		s0.1-0.5,0.3-0.7C24.5,6.4,25,6.3,25,6.3c0,0-0.5-0.1-0.7-0.3C24.1,5.8,24,5.2,24,5.2z"/>
	<path class="st1" d="M22.9,8.4c0,0,1,0.3,1.4,0.7c0.4,0.4,0.7,1.4,0.7,1.4c0,0,0.2-1,0.7-1.4c0.4-0.4,1.4-0.7,1.4-0.7
		s-1-0.3-1.4-0.7C25.3,7.3,25,6.3,25,6.3c0,0-0.2,0.9-0.7,1.4C24,8.1,22.9,8.4,22.9,8.4z M25,7.3c0,0,0.1,0.5,0.3,0.7
		C25.5,8.2,26,8.4,26,8.4s-0.5,0.1-0.7,0.3C25.1,9,25,9.4,25,9.4s-0.2-0.5-0.3-0.7C24.5,8.5,24,8.4,24,8.4s0.5-0.1,0.7-0.3
		C24.9,7.8,25,7.3,25,7.3z"/>
	<path class="st1" d="M22.9,16.8C22.9,16.8,22.9,16.8,22.9,16.8c0,0,1,0.3,1.4,0.7c0.4,0.4,0.7,1.4,0.7,1.4s0.2-1,0.7-1.4
		c0.4-0.4,1.4-0.7,1.4-0.7s-1-0.3-1.4-0.7c-0.4-0.4-0.7-1.4-0.7-1.4c0,0-0.2,0.9-0.7,1.4C24,16.5,22.9,16.8,22.9,16.8z M25,15.7
		c0,0,0.1,0.5,0.3,0.7c0.2,0.2,0.7,0.3,0.7,0.3s-0.5,0.1-0.7,0.3c-0.2,0.2-0.3,0.7-0.3,0.7s-0.2-0.5-0.3-0.7
		c-0.2-0.2-0.7-0.3-0.7-0.3s0.5-0.1,0.7-0.3C24.9,16.2,25,15.7,25,15.7z"/>
	<path class="st1" d="M24.3,10.2C24.1,10,24,9.4,24,9.4s-0.1,0.5-0.3,0.7c-0.2,0.2-0.7,0.3-0.7,0.3s0.5,0.1,0.7,0.3
		c0.2,0.2,0.3,0.7,0.3,0.7s0.1-0.5,0.3-0.7c0.2-0.2,0.7-0.3,0.7-0.3c0,0-0.2,0.9-0.7,1.4c-0.4,0.4-1.4,0.7-1.4,0.7
		c0,0-0.5-0.1-0.7-0.3c-0.2-0.2-0.3-0.7-0.3-0.7s-0.1,0.5-0.3,0.7c-0.2,0.2-0.7,0.3-0.7,0.3s0.5,0.1,0.7,0.3
		c0.2,0.2,0.3,0.7,0.3,0.7s0.1-0.5,0.3-0.7c0.2-0.2,0.7-0.3,0.7-0.3c0,0,0,0,0,0c0,0-0.2,0.9-0.7,1.4c-0.4,0.4-1.4,0.7-1.4,0.7
		s1,0.3,1.4,0.7c0.4,0.4,0.7,1.4,0.7,1.4c0,0,0.2-1,0.7-1.4c0.4-0.4,1.4-0.7,1.4-0.7l0,0l0,0c0,0,0.2-1,0.7-1.4
		c0.4-0.4,1.4-0.7,1.4-0.7s-1-0.3-1.4-0.7c-0.4-0.4-0.7-1.4-0.7-1.4c0,0,0.5,0.1,0.7,0.3c0.2,0.2,0.3,0.7,0.3,0.7s0.1-0.5,0.3-0.7
		c0.2-0.2,0.7-0.3,0.7-0.3s-0.5-0.1-0.7-0.3C26.2,10,26,9.4,26,9.4s-0.1,0.5-0.3,0.7c-0.2,0.2-0.7,0.3-0.7,0.3v0l0,0
		C25,10.5,24.5,10.3,24.3,10.2z M23.2,15c-0.2,0.2-0.3,0.7-0.3,0.7s-0.2-0.5-0.3-0.7c-0.2-0.2-0.7-0.3-0.7-0.3s0.5-0.1,0.7-0.3
		c0.2-0.2,0.3-0.7,0.3-0.7s0.1,0.5,0.3,0.7c0.2,0.2,0.7,0.3,0.7,0.3S23.4,14.8,23.2,15z M23.6,14c-0.4-0.4-0.7-1.4-0.7-1.4
		c0,0,1,0.3,1.4,0.7c0.4,0.4,0.7,1.4,0.7,1.4C25,14.7,24,14.4,23.6,14z M25.3,12.3c0.2,0.2,0.7,0.3,0.7,0.3s-0.5,0.1-0.7,0.3
		c-0.2,0.2-0.3,0.7-0.3,0.7s-0.2-0.5-0.3-0.7c-0.2-0.2-0.7-0.3-0.7-0.3s0.5-0.1,0.7-0.3c0.2-0.2,0.3-0.7,0.3-0.7
		S25.1,12.1,25.3,12.3z"/>
	<path class="st1" d="M25,4.2c0,0,0.2-1,0.7-1.4c0.4-0.4,1.4-0.7,1.4-0.7s-1-0.3-1.4-0.7C25.3,1,25,0,25,0s-0.2,0.9-0.7,1.4
		c-0.4,0.4-1.4,0.7-1.4,0.7s1,0.3,1.4,0.7C24.7,3.1,25,4.2,25,4.2z M24.7,1.8C24.9,1.5,25,1,25,1s0.1,0.5,0.3,0.7
		C25.5,1.9,26,2.1,26,2.1s-0.5,0.1-0.7,0.3C25.1,2.7,25,3.1,25,3.1s-0.2-0.5-0.3-0.7C24.5,2.2,24,2.1,24,2.1S24.5,2,24.7,1.8z"/>
	<path class="st1" d="M8.1,28.5c0.2,0.2,0.3,0.7,0.3,0.7s0.1-0.5,0.3-0.7c0.2-0.2,0.7-0.3,0.7-0.3S9,28,8.7,27.8
		c-0.2-0.2-0.3-0.7-0.3-0.7s-0.1,0.5-0.3,0.7c-0.2,0.2-0.7,0.3-0.7,0.3c0,0-1-0.2-1.4-0.7C5.5,27.1,5.2,26,5.2,26s-0.3,1-0.7,1.4
		c-0.4,0.4-1.4,0.7-1.4,0.7s0.9,0.2,1.4,0.7c0.4,0.4,0.7,1.4,0.7,1.4s0.3-1,0.7-1.4c0.4-0.4,1.4-0.7,1.4-0.7
		C7.3,28.1,7.8,28.2,8.1,28.5z M5.6,28.5c-0.2,0.2-0.3,0.7-0.3,0.7s-0.1-0.5-0.3-0.7c-0.2-0.2-0.7-0.3-0.7-0.3s0.5-0.1,0.7-0.3
		c0.2-0.2,0.3-0.7,0.3-0.7s0.1,0.5,0.3,0.7c0.2,0.2,0.7,0.3,0.7,0.3S5.8,28.3,5.6,28.5z"/>
	<path class="st1" d="M8.4,20.8c0,0-0.1,0.5-0.3,0.7c-0.2,0.2-0.7,0.3-0.7,0.3s0.5,0.1,0.7,0.3c0.2,0.2,0.3,0.7,0.3,0.7
		s0.1-0.5,0.3-0.7c0.2-0.2,0.7-0.3,0.7-0.3S9,21.7,8.7,21.5C8.5,21.3,8.4,20.8,8.4,20.8z"/>
	<path class="st1" d="M12.6,22.9C12.6,22.9,12.6,22.9,12.6,22.9c0,0,0.9,0.2,1.4,0.7c0.4,0.4,0.7,1.4,0.7,1.4s0.3-1,0.7-1.4
		c0.4-0.4,1.4-0.7,1.4-0.7s-1-0.2-1.4-0.7c-0.4-0.4-0.7-1.4-0.7-1.4s-0.3,1-0.7,1.4C13.6,22.6,12.6,22.9,12.6,22.9
		c0,0,0.1-0.5,0.3-0.7c0.2-0.2,0.7-0.3,0.7-0.3s-0.5-0.1-0.7-0.3c-0.2-0.2-0.3-0.7-0.3-0.7s-0.1,0.5-0.3,0.7
		c-0.2,0.2-0.7,0.3-0.7,0.3s0.5,0.1,0.7,0.3C12.4,22.4,12.6,22.9,12.6,22.9L12.6,22.9L12.6,22.9C12.6,22.9,12.6,22.9,12.6,22.9z
		 M14.4,22.6c0.2-0.2,0.3-0.7,0.3-0.7s0.1,0.5,0.3,0.7c0.2,0.2,0.7,0.3,0.7,0.3s-0.5,0.2-0.7,0.3c-0.2,0.2-0.3,0.7-0.3,0.7
		s-0.1-0.5-0.3-0.7c-0.2-0.2-0.7-0.3-0.7-0.3S14.2,22.8,14.4,22.6z"/>
	<path class="st1" d="M16.8,27.1C16.8,27.1,16.8,27.1,16.8,27.1c0,0,0.3-1,0.7-1.4c0.4-0.4,1.4-0.7,1.4-0.7s-1-0.2-1.4-0.7
		c-0.4-0.4-0.7-1.4-0.7-1.4s-0.3,1-0.7,1.4c-0.4,0.4-1.4,0.7-1.4,0.7c0,0,0.9,0.2,1.4,0.7C16.5,26,16.8,27.1,16.8,27.1z M16.4,24.7
		c0.2-0.2,0.3-0.7,0.3-0.7s0.1,0.5,0.3,0.7c0.2,0.2,0.7,0.3,0.7,0.3s-0.5,0.2-0.7,0.3c-0.2,0.2-0.3,0.7-0.3,0.7s-0.1-0.5-0.3-0.7
		c-0.2-0.2-0.7-0.3-0.7-0.3S16.3,24.9,16.4,24.7z"/>
	<path class="st1" d="M8.4,27.1c0,0,0.3-1,0.7-1.4c0.4-0.4,1.4-0.7,1.4-0.7c0,0-1-0.2-1.4-0.7c-0.4-0.4-0.7-1.4-0.7-1.4
		s-0.3,1-0.7,1.4C7.3,24.7,6.3,25,6.3,25c0,0,0.9,0.2,1.4,0.7C8.1,26,8.4,27.1,8.4,27.1z M8.1,24.7C8.2,24.5,8.4,24,8.4,24
		s0.1,0.5,0.3,0.7C9,24.9,9.4,25,9.4,25s-0.5,0.2-0.7,0.3C8.5,25.5,8.4,26,8.4,26s-0.1-0.5-0.3-0.7C7.8,25.1,7.3,25,7.3,25
		S7.9,24.9,8.1,24.7z"/>
	<path class="st1" d="M9.4,26c0,0,0.5,0.1,0.7,0.3c0.2,0.2,0.3,0.7,0.3,0.7s0.1-0.5,0.3-0.7c0.2-0.2,0.7-0.3,0.7-0.3
		s-0.5-0.1-0.7-0.3c-0.2-0.2-0.3-0.7-0.3-0.7c0,0-0.1,0.5-0.3,0.7C10,25.9,9.4,26,9.4,26z"/>
	<path class="st1" d="M5.2,26c0,0,0.1-0.5,0.3-0.7C5.8,25.2,6.3,25,6.3,25h0l0,0c0,0-0.5-0.1-0.7-0.3C5.4,24.5,5.2,24,5.2,24
		c0,0-0.1,0.5-0.3,0.7C4.7,24.9,4.2,25,4.2,25c0,0,0.5,0.1,0.7,0.3C5.1,25.5,5.2,26,5.2,26z"/>
	<path class="st1" d="M5.2,24C5.2,24,5.2,24,5.2,24c0,0,0.5,0.1,0.7,0.3C6.2,24.5,6.3,25,6.3,25c0,0,0.1-0.5,0.3-0.7
		C6.8,24.1,7.3,24,7.3,24s-0.5-0.1-0.7-0.3c-0.2-0.2-0.3-0.7-0.3-0.7S6.1,23.4,6,23.6C5.8,23.8,5.3,23.9,5.2,24c0,0,0.3-1,0.7-1.4
		c0.4-0.4,1.4-0.7,1.4-0.7s-1-0.2-1.4-0.7c-0.4-0.4-0.7-1.4-0.7-1.4s-0.3,1-0.7,1.4c-0.4,0.4-1.4,0.7-1.4,0.7s0.9,0.2,1.4,0.7
		C5,22.9,5.2,23.9,5.2,24L5.2,24L5.2,24L5.2,24C5.2,24,5.2,24,5.2,24z M4.9,22.2c-0.2-0.2-0.7-0.3-0.7-0.3s0.5-0.1,0.7-0.3
		c0.2-0.2,0.3-0.7,0.3-0.7s0.1,0.5,0.3,0.7c0.2,0.2,0.7,0.3,0.7,0.3S5.8,22,5.6,22.2c-0.2,0.2-0.3,0.7-0.3,0.7S5.1,22.4,4.9,22.2z"
		/>
	<path class="st1" d="M11.5,24c0,0-0.5-0.1-0.7-0.3c-0.2-0.2-0.3-0.7-0.3-0.7s-0.1,0.5-0.3,0.7C10,23.8,9.4,24,9.4,24
		s0.5,0.1,0.7,0.3c0.2,0.2,0.3,0.7,0.3,0.7c0,0,0.1-0.5,0.3-0.7C11,24.1,11.5,24,11.5,24z"/>
	<path class="st1" d="M5.2,26L5.2,26c0,0,0.5,0.1,0.7,0.3c0.2,0.2,0.3,0.7,0.3,0.7s0.1-0.5,0.3-0.7C6.8,26.2,7.3,26,7.3,26
		s-0.5-0.1-0.7-0.3C6.4,25.5,6.3,25,6.3,25c0,0-0.1,0.5-0.3,0.7C5.8,25.9,5.2,26,5.2,26z"/>
	<path class="st1" d="M11.9,25.7c0.4,0.4,0.7,1.4,0.7,1.4c0,0-0.1,0.5-0.3,0.7c-0.2,0.2-0.7,0.3-0.7,0.3s0.5,0.1,0.7,0.3
		c0.2,0.2,0.3,0.7,0.3,0.7s0.1-0.5,0.3-0.7c0.2-0.2,0.7-0.3,0.7-0.3s-0.5-0.1-0.7-0.3c-0.2-0.2-0.3-0.7-0.3-0.7c0,0,0,0,0,0
		c0,0,0.9,0.2,1.4,0.7c0.4,0.4,0.7,1.4,0.7,1.4s0.3-1,0.7-1.4c0.4-0.4,1.4-0.7,1.4-0.7c0,0-1-0.2-1.4-0.7C15,26.1,14.7,25,14.7,25
		c0,0,0,0,0,0l0,0c0,0-1-0.2-1.4-0.7c-0.4-0.4-0.7-1.4-0.7-1.4s-0.3,1-0.7,1.4c-0.4,0.4-1.4,0.7-1.4,0.7l0,0h0
		C10.5,25,11.4,25.2,11.9,25.7z M14.7,26c0,0,0.1,0.5,0.3,0.7c0.2,0.2,0.7,0.3,0.7,0.3s-0.5,0.2-0.7,0.3c-0.2,0.2-0.3,0.7-0.3,0.7
		s-0.1-0.5-0.3-0.7c-0.2-0.2-0.7-0.3-0.7-0.3s0.5-0.1,0.7-0.3C14.5,26.6,14.7,26,14.7,26z M14,26.4c-0.4,0.4-1.4,0.7-1.4,0.7
		c0,0,0.3-1,0.7-1.4c0.4-0.4,1.4-0.7,1.4-0.7C14.7,25,14.4,26,14,26.4z M12.3,24.7c0.2-0.2,0.3-0.7,0.3-0.7s0.1,0.5,0.3,0.7
		c0.2,0.2,0.7,0.3,0.7,0.3s-0.5,0.2-0.7,0.3c-0.2,0.2-0.3,0.7-0.3,0.7s-0.1-0.5-0.3-0.7C12,25.1,11.5,25,11.5,25
		S12.1,24.9,12.3,24.7z"/>
	<path class="st1" d="M2.8,24.3c-0.4-0.4-0.7-1.4-0.7-1.4s-0.3,1-0.7,1.4C1,24.7,0,25,0,25s0.9,0.2,1.4,0.7c0.4,0.4,0.7,1.4,0.7,1.4
		s0.3-1,0.7-1.4C3.1,25.3,4.2,25,4.2,25C4.2,25,3.2,24.8,2.8,24.3z M2.4,25.3C2.2,25.5,2.1,26,2.1,26S2,25.5,1.8,25.3
		C1.5,25.1,1,25,1,25s0.5-0.1,0.7-0.3C1.9,24.5,2.1,24,2.1,24s0.1,0.5,0.3,0.7C2.7,24.9,3.1,25,3.1,25S2.6,25.2,2.4,25.3z"/>
	<path class="st1" d="M44.8,26c0,0-0.3,1.1-0.7,1.4c-0.5,0.5-1.4,0.7-1.4,0.7c0,0-0.5-0.1-0.7-0.3c-0.2-0.2-0.3-0.7-0.3-0.7
		s-0.1,0.5-0.3,0.7c-0.2,0.2-0.7,0.3-0.7,0.3s0.5,0.2,0.7,0.3c0.2,0.2,0.3,0.7,0.3,0.7s0.1-0.5,0.3-0.7c0.2-0.2,0.7-0.3,0.7-0.3
		c0,0,1.1,0.3,1.4,0.7c0.4,0.4,0.7,1.4,0.7,1.4s0.3-1.1,0.7-1.4c0.5-0.5,1.4-0.7,1.4-0.7s-1-0.3-1.4-0.7C45.1,27.1,44.8,26,44.8,26z
		 M45.1,28.5c-0.2,0.2-0.3,0.7-0.3,0.7s-0.1-0.5-0.3-0.7c-0.2-0.2-0.7-0.3-0.7-0.3s0.5-0.1,0.7-0.3c0.2-0.2,0.3-0.7,0.3-0.7
		s0.1,0.5,0.3,0.7c0.2,0.2,0.7,0.3,0.7,0.3S45.3,28.2,45.1,28.5z"/>
	<path class="st1" d="M41.3,21.5c-0.2,0.2-0.7,0.3-0.7,0.3s0.5,0.2,0.7,0.3c0.2,0.2,0.3,0.7,0.3,0.7s0.1-0.5,0.3-0.7
		c0.2-0.2,0.7-0.3,0.7-0.3s-0.5-0.1-0.7-0.3c-0.2-0.2-0.3-0.7-0.3-0.7S41.5,21.3,41.3,21.5z"/>
	<path class="st1" d="M37.7,22.2c0.2-0.2,0.7-0.3,0.7-0.3s-0.5-0.1-0.7-0.3c-0.2-0.2-0.3-0.7-0.3-0.7s-0.1,0.5-0.3,0.7
		c-0.2,0.2-0.7,0.3-0.7,0.3s0.5,0.2,0.7,0.3c0.2,0.2,0.3,0.7,0.3,0.7c0,0-1-0.3-1.4-0.7c-0.4-0.4-0.7-1.4-0.7-1.4s-0.3,1.1-0.7,1.4
		c-0.5,0.5-1.4,0.7-1.4,0.7s1.1,0.3,1.4,0.7C35,24,35.3,25,35.3,25s0.3-1.1,0.7-1.4c0.5-0.5,1.4-0.7,1.4-0.7c0,0,0,0,0,0s0,0,0,0
		l0,0h0C37.4,22.9,37.6,22.4,37.7,22.2z M35.6,23.2c-0.2,0.2-0.3,0.7-0.3,0.7s-0.1-0.5-0.3-0.7c-0.2-0.2-0.7-0.3-0.7-0.3
		s0.5-0.1,0.7-0.3c0.2-0.2,0.3-0.7,0.3-0.7s0.1,0.5,0.3,0.7c0.2,0.2,0.7,0.3,0.7,0.3S35.9,23,35.6,23.2z"/>
	<path class="st1" d="M35.3,25c0,0-1-0.3-1.4-0.7c-0.4-0.4-0.7-1.4-0.7-1.4s-0.3,1.1-0.7,1.4c-0.5,0.5-1.4,0.7-1.4,0.7
		s1.1,0.3,1.4,0.7c0.4,0.4,0.7,1.4,0.7,1.4s0,0,0,0c0,0,0.3-1.1,0.7-1.4C34.4,25.2,35.3,25,35.3,25z M33.2,26c0,0-0.1-0.5-0.3-0.7
		c-0.2-0.2-0.7-0.3-0.7-0.3s0.5-0.1,0.7-0.3c0.2-0.2,0.3-0.7,0.3-0.7s0.1,0.5,0.3,0.7c0.2,0.2,0.7,0.3,0.7,0.3s-0.5,0.1-0.7,0.3
		C33.4,25.5,33.2,26,33.2,26z"/>
	<path class="st1" d="M38.5,26c0,0,0.5,0.2,0.7,0.3c0.2,0.2,0.3,0.7,0.3,0.7s0.1-0.5,0.3-0.7c0.2-0.2,0.7-0.3,0.7-0.3
		s-0.5-0.1-0.7-0.3c-0.2-0.2-0.3-0.7-0.3-0.7c0,0-0.1,0.5-0.3,0.7C38.9,25.9,38.5,26,38.5,26z"/>
	<path class="st1" d="M41.6,22.9c0,0-0.3,1.1-0.7,1.4c-0.5,0.5-1.4,0.7-1.4,0.7c0,0,1.1,0.3,1.4,0.7c0.4,0.4,0.7,1.4,0.7,1.4
		s0.3-1.1,0.7-1.4c0.5-0.5,1.4-0.7,1.4-0.7c0,0-1-0.3-1.4-0.7C41.9,23.9,41.6,22.9,41.6,22.9z M41.9,25.3c-0.2,0.2-0.3,0.7-0.3,0.7
		s-0.1-0.5-0.3-0.7c-0.2-0.2-0.7-0.3-0.7-0.3s0.5-0.1,0.7-0.3c0.2-0.2,0.3-0.7,0.3-0.7s0.1,0.5,0.3,0.7c0.2,0.2,0.7,0.3,0.7,0.3
		S42.2,25.1,41.9,25.3z"/>
	<path class="st1" d="M40.6,24c0,0-0.5-0.1-0.7-0.3c-0.2-0.2-0.3-0.7-0.3-0.7s-0.1,0.5-0.3,0.7c-0.2,0.2-0.7,0.3-0.7,0.3
		s0.5,0.2,0.7,0.3c0.2,0.2,0.3,0.7,0.3,0.7c0,0,0.1-0.5,0.3-0.7C40.1,24,40.6,24,40.6,24z"/>
	<path class="st1" d="M38.1,24.3c-0.4-0.4-0.7-1.4-0.7-1.4s-0.3,1.1-0.7,1.4c-0.5,0.5-1.4,0.7-1.4,0.7l0,0c0,0,0,0,0,0
		c0,0-0.3,1.1-0.7,1.4c-0.5,0.5-1.4,0.7-1.4,0.7c0,0,1.1,0.3,1.4,0.7c0.4,0.4,0.7,1.4,0.7,1.4s0.3-1.1,0.7-1.4
		c0.5-0.5,1.4-0.7,1.4-0.7c0,0,0,0,0,0c0,0-0.2,0.5-0.3,0.7c-0.2,0.2-0.7,0.3-0.7,0.3s0.5,0.2,0.7,0.3c0.2,0.2,0.3,0.7,0.3,0.7
		s0.1-0.5,0.3-0.7c0.2-0.2,0.7-0.3,0.7-0.3s-0.5-0.1-0.7-0.3c-0.2-0.2-0.3-0.7-0.3-0.7c0,0,0.3-1.1,0.7-1.4c0.5-0.5,1.4-0.7,1.4-0.7
		h0l0,0C39.5,25,38.5,24.7,38.1,24.3z M35.6,27.4c-0.2,0.2-0.3,0.7-0.3,0.7s-0.1-0.5-0.3-0.7c-0.2-0.2-0.7-0.3-0.7-0.3
		s0.5-0.1,0.7-0.3c0.2-0.2,0.3-0.7,0.3-0.7s0.1,0.5,0.3,0.7c0.2,0.2,0.7,0.3,0.7,0.3S35.9,27.2,35.6,27.4z M36,26.4
		C35.6,26,35.3,25,35.3,25c0,0,1.1,0.3,1.4,0.7c0.4,0.4,0.7,1.4,0.7,1.4C37.4,27.1,36.4,26.8,36,26.4z M37.7,25.3
		c-0.2,0.2-0.3,0.7-0.3,0.7s-0.1-0.5-0.3-0.7c-0.2-0.2-0.7-0.3-0.7-0.3s0.5-0.1,0.7-0.3c0.2-0.2,0.3-0.7,0.3-0.7s0.1,0.5,0.3,0.7
		c0.2,0.2,0.7,0.3,0.7,0.3S38,25.1,37.7,25.3z"/>
	<path class="st1" d="M44.8,24c0,0-0.1,0.5-0.3,0.7c-0.2,0.2-0.7,0.3-0.7,0.3c0,0,0.1-0.5,0.3-0.7C44.3,24,44.7,24,44.8,24
		C44.8,24,44.8,24,44.8,24C44.8,24,44.8,24,44.8,24L44.8,24L44.8,24L44.8,24c0,0,0.3-1.1,0.7-1.4c0.5-0.5,1.4-0.7,1.4-0.7
		s-1-0.3-1.4-0.7c-0.4-0.4-0.7-1.4-0.7-1.4s-0.3,1.1-0.7,1.4c-0.5,0.5-1.4,0.7-1.4,0.7s1.1,0.3,1.4,0.7C44.5,22.9,44.8,23.9,44.8,24
		c0,0-0.5-0.1-0.7-0.3c-0.2-0.2-0.3-0.7-0.3-0.7s-0.1,0.5-0.3,0.7c-0.2,0.2-0.7,0.3-0.7,0.3s0.5,0.2,0.7,0.3
		c0.2,0.2,0.3,0.7,0.3,0.7l0,0h0c0,0-0.1,0.5-0.3,0.7c-0.2,0.2-0.7,0.3-0.7,0.3s0.5,0.2,0.7,0.3c0.2,0.2,0.3,0.7,0.3,0.7
		s0.1-0.5,0.3-0.7c0.2-0.2,0.7-0.3,0.7-0.3h0c0,0-0.5-0.1-0.7-0.3c-0.2-0.2-0.3-0.7-0.3-0.7c0,0,0.5,0.2,0.7,0.3
		c0.2,0.2,0.3,0.7,0.3,0.7c0,0,0.1-0.5,0.3-0.7c0.2-0.2,0.7-0.3,0.7-0.3c0,0-0.5-0.1-0.7-0.3C44.9,24.5,44.8,24,44.8,24z M44.4,22.2
		c-0.2-0.2-0.7-0.3-0.7-0.3s0.5-0.1,0.7-0.3c0.2-0.2,0.3-0.7,0.3-0.7s0.1,0.5,0.3,0.7c0.2,0.2,0.7,0.3,0.7,0.3s-0.5,0.1-0.7,0.3
		c-0.2,0.2-0.3,0.7-0.3,0.7S44.6,22.4,44.4,22.2z"/>
	<path class="st1" d="M48.6,24.3c-0.4-0.4-0.7-1.4-0.7-1.4s-0.3,1.1-0.7,1.4c-0.5,0.5-1.4,0.7-1.4,0.7c0,0,1.1,0.3,1.4,0.7
		c0.4,0.4,0.7,1.4,0.7,1.4s0.3-1.1,0.7-1.4C49.1,25.2,50,25,50,25S49,24.7,48.6,24.3z M48.2,25.3C48,25.5,47.9,26,47.9,26
		s-0.1-0.5-0.3-0.7c-0.2-0.2-0.7-0.3-0.7-0.3s0.5-0.1,0.7-0.3c0.2-0.2,0.3-0.7,0.3-0.7s0.1,0.5,0.3,0.7C48.4,24.9,49,25,49,25
		S48.5,25.1,48.2,25.3z"/>
	<path class="st1" d="M22.5,44.1c-0.5-0.5-0.7-1.4-0.7-1.4c0,0,0.1-0.5,0.3-0.7c0.2-0.2,0.7-0.3,0.7-0.3s-0.5-0.1-0.7-0.3
		c-0.2-0.2-0.3-0.7-0.3-0.7s-0.2,0.5-0.3,0.7c-0.2,0.2-0.7,0.3-0.7,0.3s0.5,0.1,0.7,0.3c0.2,0.2,0.3,0.7,0.3,0.7
		c0,0-0.3,1.1-0.7,1.4c-0.4,0.4-1.4,0.7-1.4,0.7s1.1,0.3,1.4,0.7c0.5,0.5,0.7,1.4,0.7,1.4s0.3-1,0.7-1.4c0.4-0.4,1.4-0.7,1.4-0.7
		S22.9,44.5,22.5,44.1z M22.2,45.1c-0.2,0.2-0.3,0.7-0.3,0.7s-0.1-0.5-0.3-0.7c-0.2-0.2-0.7-0.3-0.7-0.3s0.5-0.1,0.7-0.3
		c0.2-0.2,0.3-0.7,0.3-0.7s0.1,0.5,0.3,0.7c0.2,0.2,0.7,0.3,0.7,0.3S22.4,44.9,22.2,45.1z"/>
	<path class="st1" d="M28.1,40.6c0,0-0.2,0.5-0.3,0.7c-0.2,0.2-0.7,0.3-0.7,0.3s0.5,0.1,0.7,0.3c0.2,0.2,0.3,0.7,0.3,0.7
		s0.1-0.5,0.3-0.7c0.2-0.2,0.7-0.3,0.7-0.3s-0.5-0.1-0.7-0.3C28.3,41,28.1,40.6,28.1,40.6z"/>
	<path class="st1" d="M27.8,37.7c0.2,0.2,0.3,0.7,0.3,0.7s0.1-0.5,0.3-0.7c0.2-0.2,0.7-0.3,0.7-0.3s-0.5-0.1-0.7-0.3
		c-0.2-0.2-0.3-0.7-0.3-0.7s-0.2,0.5-0.3,0.7c-0.2,0.2-0.7,0.3-0.7,0.3c0,0,0.3-1,0.7-1.4c0.4-0.4,1.4-0.7,1.4-0.7s-1.1-0.3-1.4-0.7
		c-0.5-0.5-0.7-1.4-0.7-1.4s-0.3,1.1-0.7,1.4C26,35,25,35.3,25,35.3s1.1,0.3,1.4,0.7c0.5,0.5,0.7,1.4,0.7,1.4l0,0c0,0,0,0,0,0l0,0v0
		C27.1,37.4,27.6,37.6,27.8,37.7z M26.8,35.6c-0.2-0.2-0.7-0.3-0.7-0.3s0.5-0.1,0.7-0.3c0.2-0.2,0.3-0.7,0.3-0.7s0.1,0.5,0.3,0.7
		c0.2,0.2,0.7,0.3,0.7,0.3s-0.5,0.1-0.7,0.3c-0.2,0.2-0.3,0.7-0.3,0.7S27,35.9,26.8,35.6z"/>
	<path class="st1" d="M28.1,42.7c0,0-0.3,1.1-0.7,1.4c-0.4,0.4-1.4,0.7-1.4,0.7c0,0,0.1-0.5,0.3-0.7c0.2-0.2,0.7-0.3,0.7-0.3
		s-0.5-0.1-0.7-0.3c-0.2-0.2-0.3-0.7-0.3-0.7s-0.2,0.5-0.3,0.7c-0.2,0.2-0.7,0.3-0.7,0.3c0,0,0.5,0.1,0.7,0.3
		c0.2,0.2,0.3,0.7,0.3,0.7c0,0,0,0,0,0s0,0,0,0v0l0,0v0c0,0,1.1,0.3,1.4,0.7c0.5,0.5,0.7,1.4,0.7,1.4s0.3-1,0.7-1.4
		c0.4-0.4,1.4-0.7,1.4-0.7s-1.1-0.3-1.4-0.7C28.4,43.6,28.1,42.7,28.1,42.7z M28.5,45.1c-0.2,0.2-0.3,0.7-0.3,0.7s-0.1-0.5-0.3-0.7
		c-0.2-0.2-0.7-0.3-0.7-0.3s0.5-0.1,0.7-0.3c0.2-0.2,0.3-0.7,0.3-0.7s0.1,0.5,0.3,0.7c0.2,0.2,0.7,0.3,0.7,0.3S28.7,44.9,28.5,45.1z
		"/>
	<path class="st1" d="M26,40.6c0,0,0.1-0.5,0.3-0.7c0.2-0.2,0.7-0.3,0.7-0.3s-0.5-0.1-0.7-0.3c-0.2-0.2-0.3-0.7-0.3-0.7
		s-0.2,0.5-0.3,0.7c-0.2,0.2-0.7,0.3-0.7,0.3c0,0,0.5,0.1,0.7,0.3C26,40.1,26,40.6,26,40.6z"/>
	<path class="st1" d="M25,43.7c0,0-0.5-0.1-0.7-0.3c-0.2-0.2-0.3-0.7-0.3-0.7s-0.2,0.5-0.3,0.7c-0.2,0.2-0.7,0.3-0.7,0.3
		s0.5,0.1,0.7,0.3c0.2,0.2,0.3,0.7,0.3,0.7v0c0,0,0.1-0.5,0.3-0.7C24.5,43.9,25,43.7,25,43.7z"/>
	<path class="st1" d="M24,38.5c0,0-0.2,0.5-0.3,0.7c-0.2,0.2-0.7,0.3-0.7,0.3s0.5,0.1,0.7,0.3c0.2,0.2,0.3,0.7,0.3,0.7
		s0.1-0.5,0.3-0.7c0.2-0.2,0.7-0.3,0.7-0.3c0,0-0.5-0.1-0.7-0.3C24.1,38.9,24,38.5,24,38.5z"/>
	<path class="st1" d="M25,43.7L25,43.7L25,43.7c0,0-0.2,0.5-0.3,0.7c-0.2,0.2-0.7,0.3-0.7,0.3c0,0,0.5,0.1,0.7,0.3
		c0.2,0.2,0.3,0.7,0.3,0.7c0,0,0.1-0.5,0.3-0.7c0.2-0.2,0.7-0.3,0.7-0.3c0,0-0.5-0.1-0.7-0.3C25.1,44.2,25,43.7,25,43.7z"/>
	<path class="st1" d="M27.1,41.6c0,0-1.1-0.3-1.4-0.7c-0.5-0.5-0.7-1.4-0.7-1.4c0,0-0.3,1.1-0.7,1.4c-0.4,0.4-1.4,0.7-1.4,0.7
		s1.1,0.3,1.4,0.7c0.5,0.5,0.7,1.4,0.7,1.4c0,0,0.3-1,0.7-1.4C26.1,41.9,27.1,41.6,27.1,41.6z M25,42.7c0,0-0.1-0.5-0.3-0.7
		c-0.2-0.2-0.7-0.3-0.7-0.3s0.5-0.1,0.7-0.3c0.2-0.2,0.3-0.7,0.3-0.7s0.1,0.5,0.3,0.7c0.2,0.2,0.7,0.3,0.7,0.3s-0.5,0.1-0.7,0.3
		C25.1,42.1,25,42.7,25,42.7z"/>
	<path class="st1" d="M25.7,38.1c0.4-0.4,1.4-0.7,1.4-0.7s-1.1-0.3-1.4-0.7c-0.5-0.5-0.7-1.4-0.7-1.4l0,0l0,0c0,0,0.3-1,0.7-1.4
		c0.4-0.4,1.4-0.7,1.4-0.7s-1.1-0.3-1.4-0.7c-0.5-0.5-0.7-1.4-0.7-1.4s-0.3,1.1-0.7,1.4c-0.4,0.4-1.4,0.7-1.4,0.7s0,0,0,0
		c0,0,1.1,0.3,1.4,0.7c0.5,0.5,0.7,1.4,0.7,1.4c0,0-1.1-0.3-1.4-0.7c-0.5-0.5-0.7-1.4-0.7-1.4c0,0-0.3,1.1-0.7,1.4
		c-0.4,0.4-1.4,0.7-1.4,0.7s1.1,0.3,1.4,0.7c0.5,0.5,0.7,1.4,0.7,1.4c0,0,0,0,0,0c0,0-0.5-0.2-0.7-0.3c-0.2-0.2-0.3-0.7-0.3-0.7
		s-0.2,0.5-0.3,0.7c-0.2,0.2-0.7,0.3-0.7,0.3s0.5,0.1,0.7,0.3c0.2,0.2,0.3,0.7,0.3,0.7s0.1-0.5,0.3-0.7c0.2-0.2,0.7-0.3,0.7-0.3
		c0,0,1.1,0.3,1.4,0.7c0.5,0.5,0.7,1.4,0.7,1.4l0,0v0C25,39.5,25.3,38.5,25.7,38.1z M24.7,33.6c-0.2-0.2-0.7-0.3-0.7-0.3
		s0.5-0.1,0.7-0.3c0.2-0.2,0.3-0.7,0.3-0.7s0.1,0.5,0.3,0.7c0.2,0.2,0.7,0.3,0.7,0.3s-0.5,0.1-0.7,0.3c-0.2,0.2-0.3,0.7-0.3,0.7
		S24.9,33.8,24.7,33.6z M22.6,35.6c-0.2-0.2-0.7-0.3-0.7-0.3s0.5-0.1,0.7-0.3c0.2-0.2,0.3-0.7,0.3-0.7s0.1,0.5,0.3,0.7
		c0.2,0.2,0.7,0.3,0.7,0.3s-0.5,0.1-0.7,0.3c-0.2,0.2-0.3,0.7-0.3,0.7S22.8,35.9,22.6,35.6z M23.6,36c0.4-0.4,1.4-0.7,1.4-0.7
		c0,0-0.3,1.1-0.7,1.4c-0.4,0.4-1.4,0.7-1.4,0.7C22.9,37.4,23.2,36.4,23.6,36z M24.7,37.7c-0.2-0.2-0.7-0.3-0.7-0.3s0.5-0.1,0.7-0.3
		c0.2-0.2,0.3-0.7,0.3-0.7s0.1,0.5,0.3,0.7c0.2,0.2,0.7,0.3,0.7,0.3s-0.5,0.1-0.7,0.3c-0.2,0.2-0.3,0.7-0.3,0.7S24.9,38,24.7,37.7z"
		/>
	<path class="st1" d="M22.9,47.9c0,0,1.1,0.3,1.4,0.7C24.8,49.1,25,50,25,50s0.3-1,0.7-1.4c0.4-0.4,1.4-0.7,1.4-0.7
		s-1.1-0.3-1.4-0.7c-0.5-0.5-0.7-1.4-0.7-1.4c0,0-0.3,1.1-0.7,1.4C23.9,47.6,22.9,47.9,22.9,47.9z M25,46.9c0,0,0.1,0.5,0.3,0.7
		c0.2,0.2,0.7,0.3,0.7,0.3s-0.5,0.1-0.7,0.3C25.1,48.4,25,49,25,49s-0.1-0.5-0.3-0.7C24.5,48,24,47.9,24,47.9s0.5-0.1,0.7-0.3
		C24.8,47.4,25,46.9,25,46.9z"/>
	<path class="st1" d="M11,15c-0.3,0-0.7-0.3-0.7-0.3c0,0-0.5-0.8-0.5-1.5c0-0.5,0.5-1.5,0.5-1.5s-0.9,0.5-1.5,0.5
		c-0.6,0-1.5-0.5-1.5-0.5s0.5,0.8,0.5,1.5c0,0.5-0.5,1.5-0.5,1.5s0.9-0.5,1.5-0.5c0.5,0,1.5,0.5,1.5,0.5c0,0,0.3,0.4,0.3,0.7
		c0,0.3-0.3,0.7-0.3,0.7S10.7,16,11,16c0.3,0,0.7,0.3,0.7,0.3s-0.3-0.4-0.3-0.7c0-0.3,0.3-0.7,0.3-0.7S11.3,15,11,15z M9.5,14
		c0,0-0.5-0.3-0.7-0.3c-0.3,0-0.7,0.3-0.7,0.3s0.3-0.5,0.3-0.7c0-0.3-0.3-0.7-0.3-0.7s0.5,0.3,0.7,0.3c0.3,0,0.7-0.3,0.7-0.3
		S9.3,13,9.3,13.3C9.3,13.6,9.5,14,9.5,14z"/>
	<path class="st1" d="M15.5,11.5c0.3,0,0.7,0.3,0.7,0.3S16,11.4,16,11c0-0.3,0.3-0.7,0.3-0.7s-0.5,0.3-0.7,0.3
		c-0.3,0-0.7-0.3-0.7-0.3S15,10.7,15,11c0,0.3-0.3,0.7-0.3,0.7S15.2,11.5,15.5,11.5z"/>
	<path class="st1" d="M17.7,14.7L17.7,14.7c0,0,0.5,0.8,0.5,1.5c0,0.5-0.5,1.5-0.5,1.5s0.9-0.5,1.5-0.5c0.5,0,1.5,0.5,1.5,0.5
		s-0.5-0.8-0.5-1.5c0-0.5,0.5-1.5,0.5-1.5s-0.9,0.5-1.5,0.5C18.6,15.3,17.7,14.7,17.7,14.7c0,0,0.5-0.3,0.7-0.3
		c0.3,0,0.7,0.3,0.7,0.3s-0.3-0.4-0.3-0.7c0-0.3,0.3-0.7,0.3-0.7s-0.5,0.3-0.7,0.3c-0.3,0-0.7-0.3-0.7-0.3S18,13.7,18,14
		C18,14.3,17.7,14.7,17.7,14.7L17.7,14.7L17.7,14.7C17.7,14.7,17.7,14.7,17.7,14.7z M18.5,15.5c0,0,0.5,0.3,0.7,0.3
		c0.3,0,0.7-0.3,0.7-0.3s-0.3,0.5-0.3,0.7c0,0.3,0.3,0.7,0.3,0.7s-0.5-0.3-0.7-0.3c-0.3,0-0.7,0.3-0.7,0.3s0.3-0.5,0.3-0.7
		C18.7,15.9,18.5,15.5,18.5,15.5z"/>
	<path class="st1" d="M10.3,11.8L10.3,11.8c0,0,0.3,0.4,0.3,0.7c0,0.3-0.3,0.7-0.3,0.7S10.7,13,11,13c0.3,0,0.7,0.3,0.7,0.3
		s-0.3-0.4-0.3-0.7c0-0.3,0.3-0.7,0.3-0.7c0,0-0.5,0.3-0.7,0.3C10.7,12,10.3,11.8,10.3,11.8c0,0,0.5-0.3,0.7-0.3
		c0.3,0,0.7,0.3,0.7,0.3l0,0l0,0c0,0-0.3-0.4-0.3-0.7c0-0.3,0.3-0.7,0.3-0.7l0,0l0,0l0,0c0,0,0.3,0.4,0.3,0.7c0,0.3-0.3,0.7-0.3,0.7
		c0,0,0.5-0.3,0.7-0.3c0.3,0,0.7,0.3,0.7,0.3S13,11.4,13,11c0-0.3,0.3-0.7,0.3-0.7s-0.5,0.3-0.7,0.3c-0.3,0-0.7-0.3-0.7-0.3
		c0,0,0.9-0.5,1.5-0.5c0.5,0,1.5,0.5,1.5,0.5s-0.5-0.8-0.5-1.5c0-0.5,0.5-1.5,0.5-1.5s-0.9,0.5-1.5,0.5c-0.6,0-1.5-0.5-1.5-0.5
		s0.5,0.8,0.5,1.5c0,0.5-0.5,1.5-0.5,1.5c0,0,0,0,0,0l0,0c0,0-0.5,0.3-0.7,0.3c-0.3,0-0.7-0.3-0.7-0.3c0,0,0.3,0.4,0.3,0.7
		C10.6,11.3,10.3,11.8,10.3,11.8z M12.5,8.1c0,0,0.5,0.3,0.7,0.3c0.3,0,0.7-0.3,0.7-0.3s-0.3,0.5-0.3,0.7c0,0.3,0.3,0.7,0.3,0.7
		s-0.5-0.3-0.7-0.3c-0.3,0-0.7,0.3-0.7,0.3s0.3-0.5,0.3-0.7C12.8,8.5,12.5,8.1,12.5,8.1z"/>
	<path class="st1" d="M11.8,14.7c0,0,0.9-0.5,1.5-0.5c0.5,0,1.5,0.5,1.5,0.5c0,0-0.5-0.8-0.5-1.5c0-0.5,0.5-1.5,0.5-1.5
		s-0.9,0.5-1.5,0.5c-0.6,0-1.5-0.5-1.5-0.5c0,0,0.5,0.8,0.5,1.5C12.3,13.8,11.8,14.7,11.8,14.7z M12.5,12.5c0,0,0.5,0.3,0.7,0.3
		c0.3,0,0.7-0.3,0.7-0.3s-0.3,0.5-0.3,0.7c0,0.3,0.3,0.7,0.3,0.7s-0.5-0.3-0.7-0.3c-0.3,0-0.7,0.3-0.7,0.3s0.3-0.5,0.3-0.7
		C12.8,12.9,12.5,12.5,12.5,12.5z"/>
	<path class="st1" d="M13.3,14.7c0,0,0.3,0.4,0.3,0.7c0,0.3-0.3,0.7-0.3,0.7S13.7,16,14,16c0.3,0,0.7,0.3,0.7,0.3s-0.3-0.4-0.3-0.7
		c0-0.3,0.3-0.7,0.3-0.7c0,0-0.5,0.3-0.7,0.3C13.7,15,13.3,14.7,13.3,14.7z"/>
	<path class="st1" d="M15.3,16.2c0,0.5-0.5,1.5-0.5,1.5c0,0-0.5,0.3-0.7,0.3c-0.3,0-0.7-0.3-0.7-0.3s0.3,0.4,0.3,0.7
		c0,0.3-0.3,0.7-0.3,0.7s0.5-0.3,0.7-0.3c0.3,0,0.7,0.3,0.7,0.3s-0.3-0.4-0.3-0.7c0-0.3,0.3-0.7,0.3-0.7c0,0,0,0,0,0
		c0,0,0.5,0.8,0.5,1.5c0,0.5-0.5,1.5-0.5,1.5s0.9-0.5,1.5-0.5c0.5,0,1.5,0.5,1.5,0.5c0,0-0.5-0.8-0.5-1.5c0-0.5,0.5-1.5,0.5-1.5
		c0,0,0,0,0,0l0,0c0,0-0.5-0.8-0.5-1.5c0-0.5,0.5-1.5,0.5-1.5s-1,0.5-1.5,0.5c-0.6,0-1.5-0.5-1.5-0.5c0,0,0.5-0.3,0.7-0.3
		c0.3,0,0.7,0.3,0.7,0.3S16,14.3,16,14c0-0.3,0.3-0.7,0.3-0.7s-0.5,0.3-0.7,0.3c-0.3,0-0.7-0.3-0.7-0.3S15,13.7,15,14
		c0,0.3-0.3,0.7-0.3,0.7h0l0,0C14.7,14.7,15.3,15.5,15.3,16.2z M17,19.9c0,0-0.5-0.3-0.7-0.3c-0.3,0-0.7,0.3-0.7,0.3
		s0.3-0.5,0.3-0.7c0-0.3-0.3-0.7-0.3-0.7s0.5,0.3,0.7,0.3c0.3,0,0.7-0.3,0.7-0.3s-0.3,0.5-0.3,0.7C16.7,19.5,17,19.9,17,19.9z
		 M17.7,17.7c0,0-1,0.5-1.5,0.5c-0.6,0-1.5-0.5-1.5-0.5c0,0,0.9-0.5,1.5-0.5C16.7,17.2,17.7,17.7,17.7,17.7z M15.5,15.5
		c0,0,0.5,0.3,0.7,0.3c0.3,0,0.7-0.3,0.7-0.3s-0.3,0.5-0.3,0.7c0,0.3,0.3,0.7,0.3,0.7s-0.5-0.3-0.7-0.3c-0.3,0-0.7,0.3-0.7,0.3
		s0.3-0.5,0.3-0.7C15.7,15.9,15.5,15.5,15.5,15.5z"/>
	<path class="st1" d="M17.7,20.7C17.7,20.7,17.7,20.7,17.7,20.7c0,0,0.9-0.5,1.5-0.5c0.5,0,1.5,0.5,1.5,0.5s-0.5-0.8-0.5-1.5
		c0-0.5,0.5-1.5,0.5-1.5s-0.9,0.5-1.5,0.5c-0.6,0-1.5-0.5-1.5-0.5c0,0,0.5,0.8,0.5,1.5C18.2,19.7,17.7,20.7,17.7,20.7z M18.4,18.4
		c0,0,0.5,0.3,0.7,0.3c0.3,0,0.7-0.3,0.7-0.3s-0.3,0.5-0.3,0.7c0,0.3,0.3,0.7,0.3,0.7s-0.5-0.3-0.7-0.3c-0.3,0-0.7,0.3-0.7,0.3
		s0.3-0.5,0.3-0.7C18.7,18.8,18.4,18.4,18.4,18.4z"/>
	<path class="st1" d="M8.8,9.8c0.5,0,1.5,0.5,1.5,0.5c0,0-0.5-0.8-0.5-1.5c0-0.5,0.5-1.5,0.5-1.5S9.3,7.8,8.8,7.9
		c-0.6,0-1.5-0.5-1.5-0.5s0.5,0.8,0.5,1.5c0,0.5-0.5,1.5-0.5,1.5S8.2,9.8,8.8,9.8z M8.1,8.1c0,0,0.5,0.3,0.7,0.3
		c0.3,0,0.7-0.3,0.7-0.3S9.3,8.5,9.3,8.8c0,0.3,0.3,0.7,0.3,0.7S9.1,9.3,8.8,9.3c-0.3,0-0.7,0.3-0.7,0.3s0.3-0.5,0.3-0.7
		C8.3,8.5,8.1,8.1,8.1,8.1z"/>
	<path class="st1" d="M15.5,38.5c-0.3,0-0.7-0.3-0.7-0.3S15,38.7,15,39c0,0.3-0.3,0.7-0.3,0.7c0,0-0.8,0.5-1.5,0.5
		c-0.5,0-1.5-0.5-1.5-0.5s0.5,0.9,0.5,1.5c0,0.6-0.5,1.5-0.5,1.5s0.8-0.5,1.5-0.5c0.5,0,1.5,0.5,1.5,0.5s-0.5-0.9-0.5-1.5
		c0-0.5,0.5-1.5,0.5-1.5c0,0,0.4-0.3,0.7-0.3c0.3,0,0.7,0.3,0.7,0.3S16,39.3,16,39c0-0.3,0.3-0.7,0.3-0.7S15.8,38.5,15.5,38.5z
		 M14,41.9c0,0-0.5-0.3-0.7-0.3c-0.3,0-0.7,0.3-0.7,0.3s0.3-0.5,0.3-0.7c0-0.3-0.3-0.7-0.3-0.7s0.5,0.3,0.7,0.3
		c0.3,0,0.7-0.3,0.7-0.3s-0.3,0.5-0.3,0.7C13.7,41.5,14,41.9,14,41.9z"/>
	<path class="st1" d="M11,35c0.3,0,0.7,0.3,0.7,0.3s-0.3-0.5-0.3-0.7c0-0.3,0.3-0.7,0.3-0.7S11.4,34,11,34c-0.3,0-0.7-0.3-0.7-0.3
		s0.3,0.5,0.3,0.7c0,0.3-0.3,0.7-0.3,0.7S10.7,35,11,35z"/>
	<path class="st1" d="M14.7,32.3C14.7,32.3,14.7,32.3,14.7,32.3c0,0,0.8-0.5,1.5-0.5c0.5,0,1.5,0.5,1.5,0.5s-0.5-0.9-0.5-1.5
		c0-0.5,0.5-1.5,0.5-1.5s-0.8,0.5-1.5,0.5c-0.5,0-1.5-0.5-1.5-0.5s0.5,0.9,0.5,1.5C15.3,31.4,14.7,32.3,14.7,32.3
		c0,0-0.3-0.5-0.3-0.7c0-0.3,0.3-0.7,0.3-0.7s-0.4,0.3-0.7,0.3c-0.3,0-0.7-0.3-0.7-0.3s0.3,0.5,0.3,0.7c0,0.3-0.3,0.7-0.3,0.7
		S13.7,32,14,32C14.3,32,14.7,32.3,14.7,32.3L14.7,32.3L14.7,32.3C14.7,32.3,14.7,32.3,14.7,32.3z M15.5,30.1c0,0,0.5,0.3,0.7,0.3
		c0.3,0,0.7-0.3,0.7-0.3s-0.3,0.5-0.3,0.7c0,0.3,0.3,0.7,0.3,0.7s-0.5-0.3-0.7-0.3c-0.3,0-0.7,0.3-0.7,0.3s0.3-0.5,0.3-0.7
		C15.7,30.5,15.5,30.1,15.5,30.1z"/>
	<path class="st1" d="M20.7,35.3c0,0-0.5-0.9-0.5-1.5c0-0.5,0.5-1.5,0.5-1.5c0,0-0.8,0.5-1.5,0.5c-0.5,0-1.5-0.5-1.5-0.5l0,0l0,0
		c0,0-0.8,0.5-1.5,0.5c-0.5,0-1.5-0.5-1.5-0.5s0.5,1,0.5,1.5c0,0.6-0.5,1.5-0.5,1.5c0,0-0.3-0.5-0.3-0.7c0-0.3,0.3-0.7,0.3-0.7
		S14.3,34,14,34c-0.3,0-0.7-0.3-0.7-0.3s0.3,0.5,0.3,0.7c0,0.3-0.3,0.7-0.3,0.7S13.7,35,14,35c0.3,0,0.7,0.3,0.7,0.3
		c0,0,0.3,0.5,0.3,0.7c0,0.3-0.3,0.7-0.3,0.7s0.4-0.3,0.7-0.3c0.3,0,0.7,0.3,0.7,0.3S16,36.3,16,36c0-0.3,0.3-0.7,0.3-0.7
		s-0.4,0.3-0.7,0.3c-0.3,0-0.7-0.3-0.7-0.3c0,0,0.8-0.5,1.5-0.5c0.5,0,1.5,0.5,1.5,0.5c0,0,0.3,0.5,0.3,0.7c0,0.3-0.3,0.7-0.3,0.7
		s0.4-0.3,0.7-0.3c0.3,0,0.7,0.3,0.7,0.3s-0.3-0.5-0.3-0.7c0-0.3,0.3-0.7,0.3-0.7s-0.4,0.3-0.7,0.3c-0.3,0-0.7-0.3-0.7-0.3
		c0,0,0,0,0,0c0,0,0.8-0.5,1.5-0.5C19.7,34.7,20.7,35.3,20.7,35.3z M17,34.5c0,0-0.5-0.3-0.7-0.3c-0.3,0-0.7,0.3-0.7,0.3
		s0.3-0.5,0.3-0.7c0-0.3-0.3-0.7-0.3-0.7s0.5,0.3,0.7,0.3c0.3,0,0.7-0.3,0.7-0.3s-0.3,0.5-0.3,0.7C16.7,34.1,17,34.5,17,34.5z
		 M17.7,35.3c0,0-0.5-0.9-0.5-1.5c0-0.5,0.5-1.5,0.5-1.5c0,0,0.5,1,0.5,1.5C18.2,34.3,17.7,35.3,17.7,35.3z M18.4,33
		c0,0,0.5,0.3,0.7,0.3c0.3,0,0.7-0.3,0.7-0.3s-0.3,0.5-0.3,0.7c0,0.3,0.3,0.7,0.3,0.7s-0.5-0.3-0.7-0.3c-0.3,0-0.7,0.3-0.7,0.3
		s0.3-0.5,0.3-0.7C18.7,33.5,18.4,33,18.4,33z"/>
	<path class="st1" d="M13.3,35.8c-0.5,0-1.5-0.5-1.5-0.5s0.5,0.9,0.5,1.5c0,0.6-0.5,1.5-0.5,1.5c0,0,0.8-0.5,1.5-0.5
		c0.5,0,1.5,0.5,1.5,0.5s-0.5-0.9-0.5-1.5c0-0.5,0.5-1.5,0.5-1.5C14.7,35.3,13.9,35.8,13.3,35.8z M14,37.5c0,0-0.5-0.3-0.7-0.3
		c-0.3,0-0.7,0.3-0.7,0.3s0.3-0.5,0.3-0.7c0-0.3-0.3-0.7-0.3-0.7s0.5,0.3,0.7,0.3c0.3,0,0.7-0.3,0.7-0.3s-0.3,0.5-0.3,0.7
		C13.7,37,14,37.5,14,37.5z"/>
	<path class="st1" d="M12.5,39.4c0.3,0,0.7,0.3,0.7,0.3S13,39.3,13,39c0-0.3,0.3-0.7,0.3-0.7s-0.4,0.3-0.7,0.3
		c-0.3,0-0.7-0.3-0.7-0.3c0,0,0.3,0.5,0.3,0.7c0,0.3-0.3,0.7-0.3,0.7c0,0-0.3-0.5-0.3-0.7c0-0.3,0.3-0.7,0.3-0.7
		c0,0-0.3-0.5-0.3-0.7c0-0.3,0.3-0.7,0.3-0.7S11.4,37,11,37c-0.3,0-0.7-0.3-0.7-0.3s0.3,0.5,0.3,0.7c0,0.3-0.3,0.7-0.3,0.7
		c0,0-0.5-0.9-0.5-1.5c0-0.5,0.5-1.5,0.5-1.5s-0.8,0.5-1.5,0.5c-0.5,0-1.5-0.5-1.5-0.5s0.5,0.9,0.5,1.5c0,0.6-0.5,1.5-0.5,1.5
		s0.8-0.5,1.5-0.5c0.5,0,1.5,0.5,1.5,0.5l0,0l0,0l0,0c0,0,0,0,0,0l0,0c0,0,0.4-0.3,0.7-0.3c0.3,0,0.7,0.3,0.7,0.3
		c0,0-0.4,0.3-0.7,0.3c-0.3,0-0.7-0.3-0.7-0.3c0,0,0.3,0.5,0.3,0.7c0,0.3-0.3,0.7-0.3,0.7c0,0,0.4-0.3,0.7-0.3
		c0.3,0,0.7,0.3,0.7,0.3l0,0C11.8,39.7,12.2,39.4,12.5,39.4z M9.5,37.5c0,0-0.5-0.3-0.7-0.3c-0.3,0-0.7,0.3-0.7,0.3s0.3-0.5,0.3-0.7
		c0-0.3-0.3-0.7-0.3-0.7s0.5,0.3,0.7,0.3c0.3,0,0.7-0.3,0.7-0.3s-0.3,0.5-0.3,0.7C9.3,37,9.5,37.5,9.5,37.5z"/>
	<path class="st1" d="M20.7,32.3C20.7,32.3,20.7,32.3,20.7,32.3c0,0-0.5-0.9-0.5-1.5c0-0.5,0.5-1.5,0.5-1.5s-0.8,0.5-1.5,0.5
		c-0.5,0-1.5-0.5-1.5-0.5s0.5,0.9,0.5,1.5c0,0.6-0.5,1.5-0.5,1.5c0,0,0.8-0.5,1.5-0.5C19.7,31.8,20.7,32.3,20.7,32.3z M18.4,30.1
		c0,0,0.5,0.3,0.7,0.3c0.3,0,0.7-0.3,0.7-0.3s-0.3,0.5-0.3,0.7c0,0.3,0.3,0.7,0.3,0.7s-0.5-0.3-0.7-0.3c-0.3,0-0.7,0.3-0.7,0.3
		s0.3-0.5,0.3-0.7C18.7,30.5,18.4,30.1,18.4,30.1z"/>
	<path class="st1" d="M7.3,39.7c0,0,0.5,0.9,0.5,1.5c0,0.6-0.5,1.5-0.5,1.5s0.8-0.5,1.5-0.5c0.5,0,1.5,0.5,1.5,0.5s-0.5-0.9-0.5-1.5
		c0-0.5,0.5-1.5,0.5-1.5c0,0-0.8,0.5-1.5,0.5C8.3,40.3,7.3,39.7,7.3,39.7z M9.5,41.9c0,0-0.5-0.3-0.7-0.3c-0.3,0-0.7,0.3-0.7,0.3
		s0.3-0.5,0.3-0.7c0-0.3-0.3-0.7-0.3-0.7s0.5,0.3,0.7,0.3c0.3,0,0.7-0.3,0.7-0.3s-0.3,0.5-0.3,0.7C9.3,41.5,9.5,41.9,9.5,41.9z"/>
	<path class="st1" d="M41.2,12.3c-0.5,0-1.5-0.5-1.5-0.5s0.5,1,0.5,1.5c0,0.7-0.5,1.5-0.5,1.5c0,0-0.5,0.3-0.7,0.3
		c-0.3,0-0.7-0.3-0.7-0.3s0.3,0.5,0.3,0.7c0,0.3-0.3,0.7-0.3,0.7S38.7,16,39,16c0.3,0,0.7,0.3,0.7,0.3s-0.3-0.5-0.3-0.7
		c0-0.3,0.3-0.7,0.3-0.7c0,0,1-0.5,1.5-0.5c0.6,0,1.5,0.5,1.5,0.5s-0.5-0.9-0.5-1.5c0-0.7,0.5-1.5,0.5-1.5S41.8,12.3,41.2,12.3z
		 M41.9,14c0,0-0.5-0.3-0.7-0.3c-0.3,0-0.7,0.3-0.7,0.3s0.3-0.4,0.3-0.7c0-0.3-0.3-0.7-0.3-0.7s0.5,0.3,0.7,0.3
		c0.3,0,0.7-0.3,0.7-0.3s-0.3,0.4-0.3,0.7C41.7,13.5,41.9,14,41.9,14z"/>
	<path class="st1" d="M34.5,11.5c0.3,0,0.7,0.3,0.7,0.3S35,11.3,35,11c0-0.3,0.3-0.7,0.3-0.7s-0.5,0.3-0.7,0.3
		c-0.3,0-0.7-0.3-0.7-0.3S34,10.8,34,11c0,0.3-0.3,0.7-0.3,0.7S34.3,11.5,34.5,11.5z"/>
	<path class="st1" d="M29.3,14.7c0,0,0.5,1,0.5,1.5c0,0.7-0.5,1.5-0.5,1.5s1-0.5,1.5-0.5c0.6,0,1.5,0.5,1.5,0.5s-0.5-0.9-0.5-1.5
		c0-0.7,0.5-1.5,0.5-1.5c0,0,0,0,0,0s0,0,0,0l0,0l0,0c0,0-0.3-0.5-0.3-0.7c0-0.3,0.3-0.7,0.3-0.7s-0.5,0.3-0.7,0.3
		c-0.3,0-0.7-0.3-0.7-0.3s0.3,0.5,0.3,0.7c0,0.3-0.3,0.7-0.3,0.7s0.5-0.3,0.7-0.3c0.3,0,0.7,0.3,0.7,0.3c0,0-0.9,0.5-1.5,0.5
		C30.3,15.3,29.3,14.7,29.3,14.7z M31.5,17c0,0-0.5-0.3-0.7-0.3c-0.3,0-0.7,0.3-0.7,0.3s0.3-0.4,0.3-0.7c0-0.3-0.3-0.7-0.3-0.7
		s0.5,0.3,0.7,0.3c0.3,0,0.7-0.3,0.7-0.3s-0.3,0.4-0.3,0.7C31.3,16.5,31.5,17,31.5,17z"/>
	<path class="st1" d="M38.2,14.7c0,0-0.5-0.9-0.5-1.5c0-0.7,0.5-1.5,0.5-1.5c0,0-0.9,0.5-1.5,0.5c-0.5,0-1.5-0.5-1.5-0.5
		s0.5,1,0.5,1.5c0,0.7-0.5,1.5-0.5,1.5c0,0,1-0.5,1.5-0.5C37.3,14.2,38.2,14.7,38.2,14.7z M36,12.5c0,0,0.5,0.3,0.7,0.3
		c0.3,0,0.7-0.3,0.7-0.3s-0.3,0.4-0.3,0.7c0,0.3,0.3,0.7,0.3,0.7s-0.5-0.3-0.7-0.3C36.5,13.7,36,14,36,14s0.3-0.4,0.3-0.7
		C36.3,13,36,12.5,36,12.5z"/>
	<path class="st1" d="M32.3,17.7c0,0-0.9,0.5-1.5,0.5c-0.5,0-1.5-0.5-1.5-0.5s0.5,1,0.5,1.5c0,0.7-0.5,1.5-0.5,1.5s1-0.5,1.5-0.5
		c0.6,0,1.5,0.5,1.5,0.5s0,0,0,0c0,0-0.5-0.9-0.5-1.5C31.8,18.5,32.3,17.7,32.3,17.7z M31.6,19.9c0,0-0.5-0.3-0.7-0.3
		c-0.3,0-0.7,0.3-0.7,0.3s0.3-0.4,0.3-0.7c0-0.3-0.3-0.7-0.3-0.7s0.5,0.3,0.7,0.3c0.3,0,0.7-0.3,0.7-0.3s-0.3,0.4-0.3,0.7
		C31.3,19.5,31.6,19.9,31.6,19.9z"/>
	<path class="st1" d="M39,11.5c0.3,0,0.7,0.3,0.7,0.3c0,0-0.5,0.3-0.7,0.3c-0.3,0-0.7-0.3-0.7-0.3c0,0,0.3,0.5,0.3,0.7
		c0,0.3-0.3,0.7-0.3,0.7S38.7,13,39,13c0.3,0,0.7,0.3,0.7,0.3s-0.3-0.5-0.3-0.7c0-0.3,0.3-0.7,0.3-0.7l0,0c0,0-0.3-0.5-0.3-0.7
		c0-0.3,0.3-0.7,0.3-0.7c0,0-0.5,0.3-0.7,0.3c-0.3,0-0.7-0.3-0.7-0.3l0,0c0,0,0,0,0,0c0,0-0.5-0.9-0.5-1.5c0-0.7,0.5-1.5,0.5-1.5
		s-0.9,0.5-1.5,0.5c-0.5,0-1.5-0.5-1.5-0.5s0.5,1,0.5,1.5c0,0.7-0.5,1.5-0.5,1.5s1-0.5,1.5-0.5c0.6,0,1.5,0.5,1.5,0.5
		c0,0-0.5,0.3-0.7,0.3c-0.3,0-0.7-0.3-0.7-0.3S37,10.8,37,11c0,0.3-0.3,0.7-0.3,0.7s0.5-0.3,0.7-0.3c0.3,0,0.7,0.3,0.7,0.3
		c0,0-0.3-0.5-0.3-0.7c0-0.3,0.3-0.7,0.3-0.7l0,0l0,0l0,0c0,0,0.3,0.5,0.3,0.7c0,0.3-0.3,0.7-0.3,0.7l0,0l0,0
		C38.2,11.8,38.7,11.5,39,11.5z M37.5,9.5c0,0-0.5-0.3-0.7-0.3c-0.3,0-0.7,0.3-0.7,0.3s0.3-0.4,0.3-0.7c0-0.3-0.3-0.7-0.3-0.7
		s0.5,0.3,0.7,0.3c0.3,0,0.7-0.3,0.7-0.3s-0.3,0.4-0.3,0.7C37.2,9.1,37.5,9.5,37.5,9.5z"/>
	<path class="st1" d="M35.3,16.2c0,0,0.5-0.3,0.7-0.3c0.3,0,0.7,0.3,0.7,0.3s-0.3-0.5-0.3-0.7c0-0.3,0.3-0.7,0.3-0.7S36.3,15,36,15
		c-0.3,0-0.7-0.3-0.7-0.3c0,0,0.3,0.5,0.3,0.7C35.5,15.8,35.3,16.2,35.3,16.2z"/>
	<path class="st1" d="M32.3,17.7L32.3,17.7C32.3,17.7,32.3,17.7,32.3,17.7c0,0,0.5,1,0.5,1.5c0,0.7-0.5,1.5-0.5,1.5
		c0,0,1-0.5,1.5-0.5c0.6,0,1.5,0.5,1.5,0.5s-0.5-0.9-0.5-1.5c0-0.7,0.5-1.5,0.5-1.5c0,0,0,0,0,0c0,0,0.3,0.5,0.3,0.7
		c0,0.3-0.3,0.7-0.3,0.7s0.5-0.3,0.7-0.3c0.3,0,0.7,0.3,0.7,0.3s-0.3-0.5-0.3-0.7c0-0.3,0.3-0.7,0.3-0.7S36.3,18,36,18
		c-0.3,0-0.7-0.3-0.7-0.3c0,0-0.5-0.9-0.5-1.5c0-0.7,0.5-1.5,0.5-1.5l0,0h0c0,0-0.3-0.5-0.3-0.7c0-0.3,0.3-0.7,0.3-0.7
		s-0.5,0.3-0.7,0.3c-0.3,0-0.7-0.3-0.7-0.3S34,13.7,34,14c0,0.3-0.3,0.7-0.3,0.7s0.5-0.3,0.7-0.3c0.3,0,0.7,0.3,0.7,0.3
		c0,0-0.9,0.5-1.5,0.5c-0.5,0-1.5-0.5-1.5-0.5s0.5,1,0.5,1.5C32.8,16.9,32.3,17.7,32.3,17.7z M34.5,19.9c0,0-0.5-0.3-0.7-0.3
		c-0.3,0-0.7,0.3-0.7,0.3s0.3-0.4,0.3-0.7c0-0.3-0.3-0.7-0.3-0.7s0.5,0.3,0.7,0.3c0.3,0,0.7-0.3,0.7-0.3s-0.3,0.4-0.3,0.7
		C34.2,19.5,34.5,19.9,34.5,19.9z M35.3,17.7c0,0-0.9,0.5-1.5,0.5c-0.5,0-1.5-0.5-1.5-0.5c0,0,1-0.5,1.5-0.5
		C34.4,17.2,35.2,17.7,35.3,17.7z M33,15.5c0,0,0.5,0.3,0.7,0.3c0.3,0,0.7-0.3,0.7-0.3s-0.3,0.4-0.3,0.7c0,0.3,0.3,0.7,0.3,0.7
		s-0.5-0.3-0.7-0.3C33.5,16.7,33,17,33,17s0.3-0.4,0.3-0.7C33.3,16,33,15.5,33,15.5z"/>
	<path class="st1" d="M42.7,10.3c0,0-0.5-0.9-0.5-1.5c0-0.7,0.5-1.5,0.5-1.5s-0.9,0.5-1.5,0.5c-0.5,0-1.5-0.5-1.5-0.5s0.5,1,0.5,1.5
		c0,0.7-0.5,1.5-0.5,1.5c0,0,1-0.5,1.5-0.5C41.8,9.8,42.7,10.3,42.7,10.3z M40.5,8.1c0,0,0.5,0.3,0.7,0.3c0.3,0,0.7-0.3,0.7-0.3
		s-0.3,0.4-0.3,0.7c0,0.3,0.3,0.7,0.3,0.7s-0.5-0.3-0.7-0.3c-0.3,0-0.7,0.3-0.7,0.3s0.3-0.4,0.3-0.7C40.7,8.5,40.5,8.1,40.5,8.1z"/>
	<path class="st1" d="M36.7,40.2c-0.7,0-1.5-0.5-1.5-0.5c0,0-0.3-0.5-0.3-0.7c0-0.3,0.3-0.7,0.3-0.7s-0.5,0.3-0.7,0.3
		c-0.3,0-0.7-0.3-0.7-0.3S34,38.7,34,39c0,0.3-0.3,0.7-0.3,0.7s0.5-0.3,0.7-0.3c0.3,0,0.7,0.3,0.7,0.3c0,0,0.5,1,0.5,1.5
		c0,0.6-0.5,1.5-0.5,1.5s0.9-0.5,1.5-0.5c0.7,0,1.5,0.5,1.5,0.5s-0.5-0.9-0.5-1.5c0-0.5,0.5-1.5,0.5-1.5S37.3,40.3,36.7,40.2z
		 M37.5,41.9c0,0-0.4-0.3-0.7-0.3c-0.3,0-0.7,0.3-0.7,0.3s0.3-0.5,0.3-0.7c0-0.3-0.3-0.7-0.3-0.7s0.4,0.3,0.7,0.3
		c0.3,0,0.7-0.3,0.7-0.3s-0.3,0.5-0.3,0.7C37.2,41.5,37.5,41.9,37.5,41.9z"/>
	<path class="st1" d="M39,35c0.3,0,0.7,0.3,0.7,0.3s-0.3-0.5-0.3-0.7c0-0.3,0.3-0.7,0.3-0.7S39.2,34,39,34c-0.3,0-0.7-0.3-0.7-0.3
		s0.3,0.5,0.3,0.7c0,0.3-0.3,0.7-0.3,0.7S38.7,35,39,35z"/>
	<path class="st1" d="M36,32c0.3,0,0.7,0.3,0.7,0.3s-0.3-0.5-0.3-0.7c0-0.3,0.3-0.7,0.3-0.7s-0.5,0.3-0.7,0.3
		c-0.3,0-0.7-0.3-0.7-0.3s0.3,0.5,0.3,0.7c0,0.3-0.3,0.7-0.3,0.7c0,0-0.5-0.9-0.5-1.5c0-0.5,0.5-1.5,0.5-1.5s-1,0.5-1.5,0.5
		c-0.7,0-1.5-0.5-1.5-0.5s0.5,1,0.5,1.5c0,0.6-0.5,1.5-0.5,1.5s0.9-0.5,1.5-0.5c0.7,0,1.5,0.5,1.5,0.5c0,0,0,0,0,0s0,0,0,0l0,0l0,0
		C35.3,32.3,35.7,32,36,32z M34.5,31.5c0,0-0.4-0.3-0.7-0.3c-0.3,0-0.7,0.3-0.7,0.3s0.3-0.5,0.3-0.7c0-0.3-0.3-0.7-0.3-0.7
		s0.4,0.3,0.7,0.3c0.3,0,0.7-0.3,0.7-0.3s-0.3,0.5-0.3,0.7C34.2,31.1,34.5,31.5,34.5,31.5z"/>
	<path class="st1" d="M32.3,32.3c0,0-0.5-0.9-0.5-1.5c0-0.5,0.5-1.5,0.5-1.5s-1,0.5-1.5,0.5c-0.7,0-1.5-0.5-1.5-0.5s0.5,1,0.5,1.5
		c0,0.6-0.5,1.5-0.5,1.5s0,0,0,0c0,0,0.9-0.5,1.5-0.5C31.5,31.8,32.3,32.3,32.3,32.3z M30.1,30.1c0,0,0.4,0.3,0.7,0.3
		c0.3,0,0.7-0.3,0.7-0.3s-0.3,0.5-0.3,0.7c0,0.3,0.3,0.7,0.3,0.7s-0.4-0.3-0.7-0.3c-0.3,0-0.7,0.3-0.7,0.3s0.3-0.5,0.3-0.7
		C30.3,30.6,30.1,30.1,30.1,30.1z"/>
	<path class="st1" d="M32.3,35.3c0,0,0.9-0.5,1.5-0.5c0.7,0,1.5,0.5,1.5,0.5c0,0,0.5-0.3,0.7-0.3c0.3,0,0.7,0.3,0.7,0.3
		s-0.3-0.5-0.3-0.7c0-0.3,0.3-0.7,0.3-0.7S36.3,34,36,34c-0.3,0-0.7-0.3-0.7-0.3s0.3,0.5,0.3,0.7c0,0.3-0.3,0.7-0.3,0.7
		c0,0-0.5-0.9-0.5-1.5c0-0.5,0.5-1.5,0.5-1.5s-1,0.5-1.5,0.5c-0.7,0-1.5-0.5-1.5-0.5l0,0l0,0c0,0-1,0.5-1.5,0.5
		c-0.7,0-1.5-0.5-1.5-0.5c0,0,0.5,1,0.5,1.5c0,0.6-0.5,1.5-0.5,1.5s0.9-0.5,1.5-0.5C31.5,34.7,32.3,35.3,32.3,35.3
		C32.3,35.3,32.3,35.3,32.3,35.3c0,0-0.5,0.3-0.7,0.3c-0.3,0-0.7-0.3-0.7-0.3s0.3,0.5,0.3,0.7c0,0.3-0.3,0.7-0.3,0.7
		s0.5-0.3,0.7-0.3c0.3,0,0.7,0.3,0.7,0.3S32,36.3,32,36C32,35.7,32.3,35.3,32.3,35.3z M33,33c0,0,0.4,0.3,0.7,0.3
		c0.3,0,0.7-0.3,0.7-0.3s-0.3,0.5-0.3,0.7c0,0.3,0.3,0.7,0.3,0.7s-0.4-0.3-0.7-0.3c-0.3,0-0.7,0.3-0.7,0.3s0.3-0.5,0.3-0.7
		C33.3,33.5,33,33,33,33z M31.6,34.5c0,0-0.4-0.3-0.7-0.3c-0.3,0-0.7,0.3-0.7,0.3s0.3-0.5,0.3-0.7c0-0.3-0.3-0.7-0.3-0.7
		s0.4,0.3,0.7,0.3c0.3,0,0.7-0.3,0.7-0.3s-0.3,0.5-0.3,0.7C31.3,34.1,31.6,34.5,31.6,34.5z M31.8,33.8c0-0.5,0.5-1.5,0.5-1.5
		c0,0,0.5,1,0.5,1.5c0,0.6-0.5,1.5-0.5,1.5C32.3,35.3,31.8,34.3,31.8,33.8z"/>
	<path class="st1" d="M39.7,38.2L39.7,38.2C39.7,38.2,39.7,38.2,39.7,38.2c0,0,0.9-0.5,1.5-0.5c0.7,0,1.5,0.5,1.5,0.5
		s-0.5-0.9-0.5-1.5c0-0.5,0.5-1.5,0.5-1.5s-1,0.5-1.5,0.5c-0.7,0-1.5-0.5-1.5-0.5s0.5,1,0.5,1.5C40.2,37.3,39.7,38.2,39.7,38.2
		c0,0-0.3-0.5-0.3-0.7c0-0.3,0.3-0.7,0.3-0.7S39.2,37,39,37c-0.3,0-0.7-0.3-0.7-0.3s0.3,0.5,0.3,0.7c0,0.3-0.3,0.7-0.3,0.7
		c0,0,0.5-0.3,0.7-0.3C39.3,38,39.7,38.2,39.7,38.2L39.7,38.2L39.7,38.2L39.7,38.2c0,0-0.5,0.3-0.7,0.3c-0.3,0-0.7-0.3-0.7-0.3l0,0
		l0,0c0,0,0.3,0.5,0.3,0.7c0,0.3-0.3,0.7-0.3,0.7c0,0-0.3-0.5-0.3-0.7c0-0.3,0.3-0.7,0.3-0.7c0,0-0.5,0.3-0.7,0.3
		c-0.3,0-0.7-0.3-0.7-0.3S37,38.7,37,39c0,0.3-0.3,0.7-0.3,0.7s0.5-0.3,0.7-0.3c0.3,0,0.7,0.3,0.7,0.3l0,0c0,0,0.5-0.3,0.7-0.3
		c0.3,0,0.7,0.3,0.7,0.3c0,0-0.3-0.5-0.3-0.7C39.4,38.7,39.7,38.2,39.7,38.2z M41.2,36.3c0.3,0,0.7-0.3,0.7-0.3s-0.3,0.5-0.3,0.7
		c0,0.3,0.3,0.7,0.3,0.7s-0.4-0.3-0.7-0.3c-0.3,0-0.7,0.3-0.7,0.3s0.3-0.5,0.3-0.7c0-0.3-0.3-0.7-0.3-0.7S40.9,36.3,41.2,36.3z"/>
	<path class="st1" d="M38.2,35.3c0,0-1,0.5-1.5,0.5c-0.7,0-1.5-0.5-1.5-0.5c0,0,0.5,1,0.5,1.5c0,0.6-0.5,1.5-0.5,1.5
		s0.9-0.5,1.5-0.5c0.7,0,1.5,0.5,1.5,0.5c0,0-0.5-0.9-0.5-1.5C37.7,36.2,38.2,35.3,38.2,35.3z M37.5,37.5c0,0-0.4-0.3-0.7-0.3
		c-0.3,0-0.7,0.3-0.7,0.3s0.3-0.5,0.3-0.7c0-0.3-0.3-0.7-0.3-0.7s0.4,0.3,0.7,0.3c0.3,0,0.7-0.3,0.7-0.3s-0.3,0.5-0.3,0.7
		C37.2,37,37.5,37.5,37.5,37.5z"/>
	<path class="st1" d="M33.8,35.3c0,0,0.3,0.5,0.3,0.7c0,0.3-0.3,0.7-0.3,0.7s0.5-0.3,0.7-0.3c0.3,0,0.7,0.3,0.7,0.3S35,36.3,35,36
		c0-0.3,0.3-0.7,0.3-0.7c0,0-0.5,0.3-0.7,0.3C34.2,35.5,33.8,35.3,33.8,35.3z"/>
	<path class="st1" d="M41.2,40.2c-0.7,0-1.5-0.5-1.5-0.5c0,0,0.5,1,0.5,1.5c0,0.6-0.5,1.5-0.5,1.5s0.9-0.5,1.5-0.5
		c0.7,0,1.5,0.5,1.5,0.5s-0.5-0.9-0.5-1.5c0-0.5,0.5-1.5,0.5-1.5S41.7,40.3,41.2,40.2z M41.2,41.7c-0.3,0-0.7,0.3-0.7,0.3
		s0.3-0.5,0.3-0.7c0-0.3-0.3-0.7-0.3-0.7s0.4,0.3,0.7,0.3c0.3,0,0.7-0.3,0.7-0.3s-0.3,0.5-0.3,0.7c0,0.3,0.3,0.7,0.3,0.7
		S41.5,41.7,41.2,41.7z"/>
</g>
</svg>
